Coordinates
version=1
nRows=60
nColumns=12
inDegrees=yes

Units are S.I. units (second, meters, Newtons, ...)
Angles are in degrees

endheader
time	SC_y	SC_z	SC_x	AC_y	AC_z	AC_x	GH_y	GH_z	GH_yy	EL_x	PS_y
       0.0              -37.98          39.97          36.84           31.9          -16.4         -19.12         -84.03          73.74         -125.8          118.7          118.9
    0.0419              -37.98          39.97          36.84           31.9          -16.4         -19.12         -84.03          73.73         -125.8          118.7          118.9
    0.0838              -37.98          39.97          36.84           31.9         -16.39         -19.12         -84.02          73.72         -125.8          118.7          118.9
    0.1257              -37.98          39.96          36.84           31.9         -16.39         -19.12         -84.02          73.71         -125.8          118.7          118.9
    0.1676              -37.98          39.96          36.85           31.9         -16.39         -19.11         -84.01           73.7         -125.9          118.7          118.9
    0.2095              -37.98          39.96          36.85          31.91         -16.39         -19.11         -84.01          73.69         -125.9          118.7          118.9
    0.2514              -37.98          39.96          36.85          31.91         -16.38         -19.11          -84.0          73.68         -125.9          118.7          118.9
    0.2933              -37.98          39.96          36.85          31.91         -16.38         -19.11         -83.99          73.67         -125.9          118.7          118.9
    0.3352              -37.99          39.96          36.85          31.91         -16.38          -19.1         -83.98          73.66         -125.9          118.7          118.9
    0.3771              -37.99          39.96          36.86          31.91         -16.37          -19.1         -83.98          73.65         -125.9          118.7          118.9
     0.419              -37.99          39.95          36.86          31.92         -16.37          -19.1         -83.97          73.63         -125.9          118.7          118.9
    0.4609              -37.99          39.95          36.86          31.92         -16.36          -19.1         -83.96          73.62         -125.9          118.6          118.9
    0.5028              -37.99          39.95          36.87          31.92         -16.36         -19.09         -83.95           73.6         -125.9          118.6          118.9
    0.5447              -37.99          39.95          36.87          31.92         -16.35         -19.09         -83.94          73.59         -125.9          118.6          118.9
    0.5866              -37.99          39.95          36.87          31.93         -16.35         -19.08         -83.92          73.57         -125.9          118.6          118.9
    0.6285               -38.0          39.94          36.88          31.93         -16.34         -19.08         -83.91          73.55         -125.9          118.6          118.9
    0.6704               -38.0          39.94          36.88          31.93         -16.34         -19.07          -83.9          73.53         -125.9          118.6          118.9
    0.7123               -38.0          39.94          36.88          31.94         -16.33         -19.07         -83.88           73.5         -125.9          118.6          118.9
    0.7542               -38.0          39.93          36.89          31.94         -16.32         -19.06         -83.86          73.48         -125.9          118.6          118.9
    0.7961              -38.01          39.93          36.89          31.95         -16.31         -19.06         -83.84          73.45         -125.9          118.6          118.9
     0.838              -38.01          39.92           36.9          31.95          -16.3         -19.05         -83.82          73.42         -125.9          118.6          119.0
    0.8799              -38.01          39.92          36.91          31.96         -16.29         -19.04          -83.8          73.38         -125.9          118.6          119.0
    0.9218              -38.02          39.91          36.91          31.97         -16.28         -19.03         -83.78          73.34         -125.9          118.5          119.0
    0.9637              -38.02          39.91          36.92          31.97         -16.27         -19.02         -83.75           73.3         -125.9          118.5          119.0
     1.006              -38.03           39.9          36.93          31.98         -16.26         -19.01         -83.72          73.26         -125.9          118.5          119.0
     1.048              -38.03           39.9          36.94          31.99         -16.24          -19.0         -83.68           73.2         -125.9          118.5          119.0
     1.089              -38.04          39.89          36.95           32.0         -16.22         -18.99         -83.65          73.15         -126.0          118.5          119.0
     1.131              -38.04          39.88          36.96          32.01          -16.2         -18.97          -83.6          73.08         -126.0          118.4          119.0
     1.173              -38.05          39.87          36.98          32.03         -16.18         -18.95         -83.55          73.01         -126.0          118.4          119.0
     1.215              -38.06          39.86          36.99          32.04         -16.16         -18.93          -83.5          72.92         -126.0          118.4          119.0
     1.257              -38.07          39.84          37.01          32.06         -16.13         -18.91         -83.43          72.83         -126.0          118.3          119.0
     1.299              -38.08          39.83          37.03          32.08          -16.1         -18.89         -83.36          72.72         -126.0          118.3          119.0
     1.341              -38.09          39.81          37.06           32.1         -16.06         -18.86         -83.28          72.59         -126.1          118.2          119.0
     1.383              -38.11          39.79          37.09          32.13         -16.01         -18.82         -83.18          72.44         -126.1          118.2          119.0
     1.425              -38.12          39.77          37.12          32.16         -15.96         -18.78         -83.07          72.27         -126.1          118.1          119.0
     1.467              -38.14          39.74          37.16          32.19          -15.9         -18.74         -82.93          72.06         -126.2          118.0          119.1
     1.508              -38.17          39.71           37.2          32.24         -15.83         -18.68         -82.77          71.82         -126.2          117.9          119.1
      1.55               -38.2          39.67          37.26          32.29         -15.75         -18.61         -82.58          71.53         -126.3          117.8          119.1
     1.592              -38.23          39.62          37.33          32.35         -15.64         -18.53         -82.35          71.18         -126.3          117.7          119.1
     1.634              -38.27          39.56          37.41          32.42         -15.51         -18.43         -82.06          70.75         -126.4          117.5          119.2
     1.676              -38.33          39.49          37.51          32.52         -15.36         -18.31         -81.72          70.22         -126.5          117.3          119.2
     1.718              -38.39           39.4          37.63          32.63         -15.16         -18.16         -81.28          69.56         -126.6          117.0          119.3
      1.76              -38.47          39.28          37.79          32.78         -14.92         -17.96         -80.73          68.72         -126.8          116.7          119.3
     1.802              -38.58          39.14          37.99          32.97          -14.6         -17.72         -80.03          67.67         -127.0          116.2          119.4
     1.844              -38.71          38.95          38.25           33.2          -14.2         -17.41         -79.14          66.31         -127.3          115.7          119.5
     1.886              -38.89          38.71          38.58          33.51         -13.69          -17.0         -77.99          64.57         -127.6          115.0          119.6
     1.927              -39.11          38.41           39.0           33.9         -13.03         -16.49         -76.53          62.35         -128.0          114.1          119.8
     1.969              -39.38          38.03          39.53          34.39          -12.2         -15.85         -74.69          59.56         -128.6          113.0          120.0
     2.011              -39.72          37.56          40.18          34.99          -11.2         -15.06         -72.44          56.15         -129.2          111.6          120.3
     2.053              -40.11          37.02          40.93          35.69         -10.03         -14.15         -69.84          52.21         -130.0          110.0          120.6
     2.095              -40.54          36.44          41.74          36.44         -8.768         -13.16         -67.03          47.94         -130.8          108.3          120.9
     2.137              -40.96          35.85          42.55          37.19         -7.505         -12.17         -64.21          43.67         -131.6          106.6          121.3
     2.179              -41.35          35.31           43.3          37.88         -6.338         -11.26         -61.61          39.72         -132.4          105.0          121.6
     2.221              -41.69          34.85          43.95          38.48         -5.332         -10.47         -59.36          36.32         -133.0          103.6          121.8
     2.263              -41.97          34.47          44.48          38.97         -4.506         -9.829         -57.52          33.52         -133.5          102.5          122.1
     2.305              -42.19          34.16           44.9          39.36         -3.849         -9.315         -56.06           31.3         -134.0          101.6          122.2
     2.346              -42.36          33.92          45.23          39.67         -3.335         -8.913         -54.91          29.56         -134.3          100.9          122.4
     2.388              -42.49          33.74          45.49          39.91         -2.934           -8.6         -54.02          28.21         -134.6          100.4          122.5
      2.43               -42.6          33.59          45.69           40.1         -2.621         -8.356         -53.32          27.15         -134.8          99.93          122.6
     2.472              -42.68          33.48          45.85          40.24         -2.375         -8.163         -52.77          26.32         -134.9           99.6          122.6
